<svg xmlns="http://www.w3.org/2000/svg" width="141" height="34"><g fill="none" fill-rule="evenodd"><path fill="#FFF" d="M45.843 17.855H43V2.218h2.843v15.637zm19.78-6.325c0 .953-.164 1.828-.492 2.628-.328.8-.784 1.49-1.367 2.072a6.191 6.191 0 0 1-2.072 1.357 6.878 6.878 0 0 1-2.608.486h-3.849a6.92 6.92 0 0 1-2.613-.486 6.178 6.178 0 0 1-2.077-1.357 6.297 6.297 0 0 1-1.373-2.072c-.331-.8-.497-1.675-.497-2.628V8.542c0-.945.166-1.819.497-2.622a6.222 6.222 0 0 1 1.373-2.072 6.29 6.29 0 0 1 2.077-1.357A6.852 6.852 0 0 1 55.235 2h3.85c.94 0 1.809.164 2.607.49.798.328 1.489.78 2.072 1.358A6.154 6.154 0 0 1 65.13 5.92a6.87 6.87 0 0 1 .492 2.622v2.988zM62.78 8.542c0-.56-.09-1.066-.268-1.52a3.361 3.361 0 0 0-.755-1.167 3.373 3.373 0 0 0-1.17-.753 4.096 4.096 0 0 0-1.503-.267h-3.849c-.554 0-1.059.09-1.514.267a3.43 3.43 0 0 0-1.176.753 3.323 3.323 0 0 0-.76 1.166 4.127 4.127 0 0 0-.267 1.521v2.988c0 .56.089 1.067.268 1.521.178.455.431.844.76 1.167.327.324.72.574 1.175.752.455.179.96.268 1.514.268h3.827c.554 0 1.059-.09 1.515-.268a3.43 3.43 0 0 0 1.175-.752 3.32 3.32 0 0 0 .76-1.167c.178-.454.268-.961.268-1.52v-2.99zm19.605-3.489h-6.266v12.802h-2.842V5.053H67V2.218h15.385v2.835z"/><path fill="#00A6FF" d="M101.734 13.125c0 .564-.071 1.071-.214 1.522a4.55 4.55 0 0 1-.566 1.193 3.777 3.777 0 0 1-.823.88 5.09 5.09 0 0 1-.977.593 4.892 4.892 0 0 1-1.027.34c-.348.074-.675.11-.983.11H86.132v-2.857h11.012c.55 0 .976-.162 1.28-.484.303-.323.455-.755.455-1.297 0-.264-.04-.506-.12-.726a1.675 1.675 0 0 0-.346-.571 1.524 1.524 0 0 0-.55-.374 1.89 1.89 0 0 0-.719-.132H90.58a5.11 5.11 0 0 1-1.494-.247 4.478 4.478 0 0 1-1.487-.797c-.458-.367-.839-.847-1.142-1.44C86.152 8.244 86 7.518 86 6.66c0-.858.152-1.581.456-2.171.303-.59.684-1.07 1.142-1.44.457-.37.953-.638 1.487-.803A5.083 5.083 0 0 1 90.58 2h9.717v2.858H90.58c-.542 0-.965.165-1.269.495-.303.33-.455.766-.455 1.308 0 .55.152.984.455 1.303.304.318.727.478 1.269.478h6.587a5.035 5.035 0 0 1 2.004.483c.34.162.664.365.972.61.307.246.58.541.818.885.238.345.426.74.565 1.188a5.1 5.1 0 0 1 .209 1.517zm17.82 4.639H116.7v-3.87h-10.035v3.87h-2.855V9.882c0-1.15.198-2.21.593-3.177.395-.967.944-1.8 1.647-2.495a7.497 7.497 0 0 1 2.492-1.627c.96-.389 2.006-.583 3.14-.583h6.435a1.44 1.44 0 0 1 1.02.418 1.444 1.444 0 0 1 .417 1.022l.001 14.324zm-12.89-6.728h10.035V4.858h-5.017c-.088 0-.273.013-.555.039-.282.025-.607.09-.977.192-.37.103-.76.26-1.17.473-.41.212-.786.505-1.13.88-.344.373-.628.84-.851 1.4-.224.561-.335 1.241-.335 2.04v1.154zM138 13.125c0 .564-.071 1.071-.214 1.522a4.55 4.55 0 0 1-.566 1.193 3.777 3.777 0 0 1-.823.88 5.09 5.09 0 0 1-.977.593 4.892 4.892 0 0 1-1.027.34c-.348.074-.675.11-.983.11h-11.012v-2.857h11.012c.55 0 .976-.162 1.28-.484.303-.323.455-.755.455-1.297 0-.264-.04-.506-.12-.726a1.675 1.675 0 0 0-.346-.571 1.524 1.524 0 0 0-.55-.374 1.89 1.89 0 0 0-.719-.132h-6.565a5.11 5.11 0 0 1-1.494-.247 4.478 4.478 0 0 1-1.487-.797c-.458-.367-.839-.847-1.142-1.44-.304-.594-.456-1.32-.456-2.177 0-.858.152-1.581.456-2.171.303-.59.684-1.07 1.142-1.44.457-.37.953-.638 1.487-.803A5.083 5.083 0 0 1 126.845 2h9.717v2.858h-9.717c-.542 0-.965.165-1.269.495-.303.33-.455.766-.455 1.308 0 .55.152.984.455 1.303.304.318.727.478 1.269.478h6.587a5.035 5.035 0 0 1 2.004.483c.34.162.665.365.972.61.307.246.58.541.818.885.238.345.426.74.565 1.188a5.1 5.1 0 0 1 .209 1.517z"/><path fill="#FFF" d="M45.832 31.059c-1.027 0-2.018-.33-2.525-.767l.377-.66c.496.389 1.334.695 2.207.695 1.18 0 1.664-.4 1.664-1.014 0-1.617-4.024-.343-4.024-2.797 0-1.015.873-1.77 2.454-1.77.803 0 1.676.224 2.195.578l-.366.673c-.542-.378-1.191-.531-1.829-.531-1.12 0-1.616.436-1.616 1.026 0 1.676 4.024.413 4.024 2.797 0 1.074-.944 1.77-2.561 1.77zm4.531-7.623a.607.607 0 0 1-.613-.602c0-.318.271-.59.613-.59.342 0 .614.26.614.579 0 .342-.26.613-.614.613zM49.938 31v-6.207h.838V31h-.838zm8.119-6.207h.802v5.452c0 2.136-1.05 3.103-3.103 3.103-1.133 0-2.242-.342-2.891-.956l.425-.637c.59.531 1.486.85 2.442.85 1.57 0 2.29-.72 2.29-2.254v-.79c-.52.79-1.405 1.203-2.42 1.203-1.77 0-3.115-1.239-3.115-3.02 0-1.783 1.345-2.998 3.115-2.998 1.039 0 1.936.425 2.455 1.239v-1.192zm-2.372 5.228c1.369 0 2.36-.933 2.36-2.278s-.991-2.265-2.36-2.265c-1.369 0-2.348.92-2.348 2.265 0 1.345.98 2.278 2.348 2.278zm8.685-5.275c1.51 0 2.549.873 2.549 2.655V31h-.838v-3.516c0-1.31-.685-1.983-1.865-1.983-1.333 0-2.17.826-2.17 2.242V31h-.839v-6.207h.803v1.145c.448-.755 1.286-1.192 2.36-1.192zm10.242 3.15c0 .071-.012.166-.012.26h-5.192c.095 1.298 1.086 2.16 2.443 2.16.755 0 1.428-.272 1.9-.815l.472.543c-.555.661-1.416 1.015-2.396 1.015-1.935 0-3.256-1.322-3.256-3.162 0-1.841 1.286-3.151 3.032-3.151 1.747 0 3.01 1.286 3.01 3.15zm-3.009-2.43c-1.203 0-2.088.85-2.195 2.065h4.402c-.106-1.216-.991-2.065-2.207-2.065zm9.546-3.222h.838V31h-.802v-1.227c-.508.838-1.369 1.286-2.396 1.286-1.77 0-3.091-1.286-3.091-3.162 0-1.877 1.321-3.151 3.091-3.151.992 0 1.841.425 2.36 1.227v-3.729zm-2.289 8.072c1.31 0 2.301-.968 2.301-2.42 0-1.45-.991-2.418-2.3-2.418-1.322 0-2.314.967-2.314 2.419 0 1.451.992 2.419 2.313 2.419zm10.726-5.57c1.605 0 2.514.802 2.514 2.407V31h-.803v-.968c-.377.638-1.109 1.027-2.135 1.027-1.405 0-2.266-.732-2.266-1.805 0-.956.614-1.759 2.395-1.759h1.971v-.377c0-1.062-.602-1.64-1.758-1.64-.803 0-1.558.283-2.065.731l-.378-.625c.626-.531 1.546-.838 2.525-.838zm-.295 5.652c.944 0 1.64-.448 1.971-1.262V28.12h-1.947c-1.204 0-1.593.472-1.593 1.109 0 .72.578 1.168 1.57 1.168zm8.06-.377l.295.601c-.33.295-.826.437-1.31.437-1.168 0-1.817-.66-1.817-1.805V25.5h-1.11v-.708h1.11v-1.357h.838v1.357h1.888v.708h-1.888v3.705c0 .732.377 1.133 1.073 1.133.343 0 .685-.106.92-.318zm6.572 1.038c-1.026 0-2.017-.33-2.525-.767l.378-.66c.495.389 1.333.695 2.206.695 1.18 0 1.664-.4 1.664-1.014 0-1.617-4.024-.343-4.024-2.797 0-1.015.874-1.77 2.455-1.77.802 0 1.675.224 2.195.578l-.366.673c-.543-.378-1.192-.531-1.83-.531-1.12 0-1.616.436-1.616 1.026 0 1.676 4.024.413 4.024 2.797 0 1.074-.944 1.77-2.56 1.77zm6.644 0c-1.817 0-3.163-1.322-3.163-3.162 0-1.841 1.346-3.151 3.163-3.151 1.817 0 3.15 1.31 3.15 3.15 0 1.841-1.333 3.163-3.15 3.163zm0-.743c1.321 0 2.3-.968 2.3-2.42 0-1.45-.979-2.418-2.3-2.418-1.322 0-2.313.967-2.313 2.419 0 1.451.991 2.419 2.313 2.419zm9.617-5.523h.838V31h-.803v-1.133c-.436.755-1.239 1.192-2.23 1.192-1.581 0-2.62-.885-2.62-2.667v-3.599h.838v3.517c0 1.321.685 1.994 1.865 1.994 1.298 0 2.112-.838 2.112-2.254v-3.257zm3.988 1.216c.39-.826 1.18-1.263 2.325-1.263v.814c-.071 0-.142-.012-.2-.012-1.299 0-2.09.826-2.09 2.29V31h-.837v-6.207h.802v1.216zm6.502 5.05c-1.853 0-3.198-1.31-3.198-3.162 0-1.853 1.345-3.151 3.198-3.151 1.05 0 1.935.413 2.43 1.227l-.625.425c-.424-.625-1.085-.92-1.805-.92-1.357 0-2.348.967-2.348 2.419 0 1.463.991 2.419 2.348 2.419.72 0 1.38-.284 1.805-.909l.626.425c-.496.802-1.38 1.227-2.431 1.227zm9.487-3.162c0 .07-.012.165-.012.26h-5.192c.095 1.297 1.086 2.159 2.443 2.159.755 0 1.428-.272 1.9-.815l.472.543c-.555.661-1.416 1.015-2.396 1.015-1.935 0-3.256-1.322-3.256-3.162 0-1.841 1.286-3.151 3.032-3.151 1.747 0 3.01 1.286 3.01 3.15zm-3.009-2.431c-1.203 0-2.088.85-2.195 2.065h4.402c-.106-1.216-.991-2.065-2.207-2.065z"/><path fill="#00A6FF" d="M14.368 20.078l2.582 2.594.197 5.932 3.31 3.325-1.093 1.098a3.28 3.28 0 0 1-4.665 0l-6.61-6.641 6.279-6.308zm13.964-2.41l3.16 3.175-5.137 5.16-6.28-6.307 2.22-2.23 6.037.203zm-8.676-3.746l-2.583-2.594-.197-5.932-3.31-3.325L14.66.973a3.28 3.28 0 0 1 4.664 0l6.61 6.641-6.278 6.308zM5.69 16.332l-3.16-3.175 5.137-5.16 6.28 6.307-2.22 2.23-6.037-.203zm13.986 3.765l6.279 6.308-5.138 5.16-3.16-3.174-.2-6.065 2.219-2.229zm6.66-12.042l6.61 6.641a3.316 3.316 0 0 1 0 4.685l-1.093 1.098-3.31-3.325-5.905-.197-2.582-2.594 6.28-6.308zm-12.028 5.886l-6.28-6.308 5.138-5.16 3.16 3.173.201 6.065-2.22 2.23zm-6.66 12.042L1.04 19.34a3.316 3.316 0 0 1 0-4.685l1.093-1.097 3.31 3.324 5.904.198 2.583 2.594-6.28 6.308z"/><path fill="#FFF" d="M14.545 16.394V14.5h1.886v1.894h-1.886zm3.077 3.091v-1.894h1.886v1.894h-1.886zm-.008-3.09V14.5H19.5v1.894h-1.886zm-3.069 3.082v-1.894h1.886v1.894h-1.886z"/></g></svg>