<?xml version="1.0" encoding="UTF-8" standalone="no"?>
<svg
   xmlns:dc="http://purl.org/dc/elements/1.1/"
   xmlns:cc="http://creativecommons.org/ns#"
   xmlns:rdf="http://www.w3.org/1999/02/22-rdf-syntax-ns#"
   xmlns:svg="http://www.w3.org/2000/svg"
   xmlns="http://www.w3.org/2000/svg"
   xmlns:sodipodi="http://sodipodi.sourceforge.net/DTD/sodipodi-0.dtd"
   xmlns:inkscape="http://www.inkscape.org/namespaces/inkscape"
   width="33.844002"
   height="34.000999"
   version="1.1"
   id="svg14"
   sodipodi:docname="iot-logo.svg"
   inkscape:version="0.92.3 (2405546, 2018-03-11)">
  <metadata
     id="metadata20">
    <rdf:RDF>
      <cc:Work
         rdf:about="">
        <dc:format>image/svg+xml</dc:format>
        <dc:type
           rdf:resource="http://purl.org/dc/dcmitype/StillImage" />
        <dc:title></dc:title>
      </cc:Work>
    </rdf:RDF>
  </metadata>
  <defs
     id="defs18" />
  <sodipodi:namedview
     pagecolor="#ffffff"
     bordercolor="#666666"
     borderopacity="1"
     objecttolerance="10"
     gridtolerance="10"
     guidetolerance="10"
     inkscape:pageopacity="0"
     inkscape:pageshadow="2"
     inkscape:window-width="1920"
     inkscape:window-height="1001"
     id="namedview16"
     showgrid="false"
     inkscape:zoom="2.8297872"
     inkscape:cx="-30.390977"
     inkscape:cy="17"
     inkscape:window-x="-9"
     inkscape:window-y="-9"
     inkscape:window-maximized="1"
     inkscape:current-layer="svg14" />
  <path
     style="fill:#00a6ff;fill-rule:evenodd"
     inkscape:connector-curvature="0"
     id="path8"
     d="m 14.368,20.079001 2.582,2.594 0.197,5.932 3.31,3.325 -1.093,1.098 a 3.28,3.28 0 0 1 -4.665,0 l -6.61,-6.641 z m 13.964,-2.41 3.16,3.175 -5.137,5.16 -6.28,-6.307 2.22,-2.23 6.037,0.203 z m -8.676,-3.746 -2.583,-2.594 -0.197,-5.9320005 -3.31,-3.325 1.094,-1.09799995 a 3.28,3.28 0 0 1 4.664,0 l 6.61,6.64099995 z m -13.966,2.41 -3.16,-3.175 5.137,-5.1600005 6.28,6.3070005 -2.22,2.23 -6.037,-0.203 z m 13.986,3.765 6.279,6.308 -5.138,5.16 -3.16,-3.174 -0.2,-6.065 z m 6.66,-12.0420005 6.61,6.6410005 a 3.316,3.316 0 0 1 0,4.685 l -1.093,1.098 -3.31,-3.325 -5.905,-0.197 -2.582,-2.594 z m -12.028,5.8860005 -6.28,-6.3080005 5.138,-5.16 3.16,3.173 0.201,6.0650005 -2.22,2.23 z m -6.66,12.042 -6.608,-6.643 a 3.316,3.316 0 0 1 0,-4.685 l 1.093,-1.097 3.31,3.324 5.904,0.198 2.583,2.594 -6.28,6.308 z" />
  <path
     style="fill:#ffffff;fill-rule:evenodd"
     inkscape:connector-curvature="0"
     id="path10"
     d="m 14.545,16.395001 v -1.894 h 1.886 v 1.894 z m 3.077,3.091 v -1.894 h 1.886 v 1.894 z m -0.008,-3.09 v -1.895 H 19.5 v 1.894 h -1.886 z m -3.069,3.082 v -1.894 h 1.886 v 1.894 z" />
</svg>
