<svg width="1000" height="1000" viewBox="0 0 1000 1000" fill="none" xmlns="http://www.w3.org/2000/svg">
<path d="M500 929C529.075 929 778.459 825.724 851.687 620.827C915.504 442.261 855.823 178.202 851.888 161.276C851.761 160.733 851.349 160.333 850.808 160.194L500.376 70.0646C500.129 70.0013 499.871 70.0013 499.625 70.0646L149.193 160.194C148.652 160.333 148.239 160.733 148.113 161.276C144.178 178.201 84.4955 442.261 148.313 620.827C221.541 825.724 470.926 929 500 929Z" fill="#56CCF2" fill-opacity="0.2"/>
<path d="M500 860C524.42 860 733.877 773.315 795.38 601.336C848.855 451.806 799.087 230.851 795.573 215.715C795.447 215.172 795.042 214.807 794.501 214.668L500.375 139.07C500.129 139.006 499.871 139.006 499.625 139.07L205.499 214.668C204.959 214.807 204.554 215.172 204.428 215.715C200.914 230.851 151.145 451.806 204.62 601.336C266.123 773.315 475.581 860 500 860Z" fill="#56CCF2"/>
<g clip-path="url(#clip0)">
<path d="M788.525 547.026H482.537C477.11 547.036 471.907 549.197 468.07 553.036C464.232 556.876 462.072 562.08 462.062 567.51V739.099C462.072 744.529 464.232 749.734 468.07 753.573C471.907 757.413 477.11 759.574 482.537 759.583H712.454C716.898 782.379 741.923 799.164 763.749 799.164C771.73 799.154 779.566 797.031 786.463 793.012C787.54 792.387 788.435 791.489 789.056 790.41C789.678 789.33 790.005 788.106 790.005 786.86C790.005 785.614 789.678 784.39 789.056 783.31C788.435 782.23 787.54 781.333 786.463 780.708C782.694 778.367 779.439 775.284 776.897 771.647C774.355 768.009 772.579 763.893 771.676 759.548H788.56C793.975 759.529 799.163 757.369 802.992 753.538C806.822 749.707 808.981 744.517 809 739.099V567.51C808.99 562.08 806.83 556.876 802.992 553.036C799.155 549.197 793.952 547.036 788.525 547.026V547.026ZM794.781 739.064C794.781 739.886 794.619 740.7 794.305 741.459C793.99 742.218 793.53 742.908 792.949 743.49C792.368 744.071 791.678 744.532 790.919 744.846C790.16 745.161 789.346 745.323 788.525 745.323H763.642C761.756 745.323 759.948 746.072 758.615 747.406C757.282 748.74 756.533 750.549 756.533 752.435C756.578 764.244 760.94 775.628 768.796 784.442C767.093 784.73 765.369 784.873 763.642 784.868C747.006 784.868 725.891 769.576 725.891 752.4C725.891 750.513 725.142 748.704 723.809 747.37C722.476 746.037 720.667 745.287 718.782 745.287H482.537C480.878 745.287 479.287 744.628 478.113 743.454C476.94 742.28 476.281 740.688 476.281 739.028V567.51C476.29 565.853 476.952 564.267 478.124 563.095C479.295 561.923 480.881 561.261 482.537 561.251H788.525C789.346 561.251 790.16 561.413 790.919 561.728C791.678 562.042 792.368 562.503 792.949 563.085C793.53 563.666 793.99 564.356 794.305 565.115C794.619 565.874 794.781 566.688 794.781 567.51V739.064Z" fill="#53346D" fill-opacity="0.2"/>
<path d="M645.2 668.757H525.194C523.308 668.757 521.5 669.506 520.167 670.84C518.833 672.174 518.084 673.983 518.084 675.869C518.084 677.756 518.833 679.565 520.167 680.899C521.5 682.232 523.308 682.982 525.194 682.982H645.2C647.085 682.982 648.894 682.232 650.227 680.899C651.56 679.565 652.309 677.756 652.309 675.869C652.309 673.983 651.56 672.174 650.227 670.84C648.894 669.506 647.085 668.757 645.2 668.757Z" fill="#53346D" fill-opacity="0.2"/>
<path d="M745.833 617.831H525.194C523.308 617.831 521.5 618.581 520.167 619.914C518.833 621.248 518.084 623.057 518.084 624.944C518.084 626.83 518.833 628.639 520.167 629.973C521.5 631.307 523.308 632.056 525.194 632.056H745.869C747.754 632.056 749.562 631.307 750.896 629.973C752.229 628.639 752.978 626.83 752.978 624.944C752.978 623.057 752.229 621.248 750.896 619.914C749.562 618.581 747.754 617.831 745.869 617.831H745.833Z" fill="#53346D" fill-opacity="0.2"/>
<path d="M663.684 344H373.764C368.525 344.009 363.504 346.096 359.799 349.802C356.095 353.508 354.009 358.532 354 363.773V542.083C354.009 547.324 356.095 552.348 359.799 556.054C363.504 559.76 368.525 561.846 373.764 561.856H389.334C388.445 565.835 386.771 569.596 384.408 572.919C382.046 576.241 379.043 579.057 375.577 581.202C374.5 581.827 373.605 582.724 372.984 583.804C372.362 584.884 372.035 586.108 372.035 587.354C372.035 588.6 372.362 589.824 372.984 590.904C373.605 591.984 374.5 592.881 375.577 593.507C382.172 597.346 389.666 599.371 397.296 599.374C420.224 599.374 447.062 579.886 447.062 554.743C447.062 552.857 446.313 551.048 444.979 549.714C443.646 548.38 441.838 547.631 439.952 547.631C438.067 547.631 436.259 548.38 434.925 549.714C433.592 551.048 432.843 552.857 432.843 554.743C432.843 570.818 413.043 585.149 397.296 585.149C395.893 585.158 394.491 585.063 393.102 584.865C400.319 576.501 404.304 565.828 404.334 554.779C404.334 552.893 403.585 551.083 402.252 549.75C400.919 548.416 399.111 547.666 397.225 547.666H373.764C372.29 547.657 370.88 547.065 369.841 546.019C368.802 544.973 368.219 543.558 368.219 542.083V363.773C368.228 362.304 368.815 360.899 369.853 359.86C370.891 358.822 372.296 358.234 373.764 358.225H663.684C665.152 358.234 666.557 358.822 667.595 359.86C668.633 360.899 669.22 362.304 669.23 363.773V527.36C669.23 529.247 669.979 531.056 671.312 532.39C672.645 533.723 674.454 534.473 676.339 534.473C678.225 534.473 680.033 533.723 681.366 532.39C682.699 531.056 683.448 529.247 683.448 527.36V363.773C683.439 358.532 681.354 353.508 677.649 349.802C673.945 346.096 668.923 344.009 663.684 344V344Z" fill="#53346D" fill-opacity="0.2"/>
<path d="M521.355 391.583C512.354 391.592 503.725 395.173 497.361 401.54C490.996 407.907 487.417 416.54 487.407 425.545C487.407 427.431 488.157 429.24 489.49 430.574C490.823 431.908 492.631 432.657 494.517 432.657C496.402 432.657 498.211 431.908 499.544 430.574C500.877 429.24 501.626 427.431 501.626 425.545C501.626 420.31 503.705 415.29 507.405 411.589C511.104 407.887 516.122 405.808 521.355 405.808C526.587 405.808 531.605 407.887 535.305 411.589C539.005 415.29 541.083 420.31 541.083 425.545C541.083 432.657 537.529 436.925 531.059 443.788C523.559 451.826 514.245 461.783 514.245 480.667C514.245 482.553 514.994 484.362 516.328 485.696C517.661 487.03 519.469 487.779 521.355 487.779C523.24 487.779 525.049 487.03 526.382 485.696C527.715 484.362 528.464 482.553 528.464 480.667C528.464 467.402 534.472 460.965 541.439 453.497C548.406 446.029 555.266 438.667 555.266 425.545C555.257 416.547 551.682 407.919 545.326 401.553C538.969 395.187 530.349 391.601 521.355 391.583V391.583Z" fill="#53346D" fill-opacity="0.2"/>
<path d="M521.355 514.38C525.772 514.38 529.353 510.798 529.353 506.378C529.353 501.959 525.772 498.377 521.355 498.377C516.938 498.377 513.357 501.959 513.357 506.378C513.357 510.798 516.938 514.38 521.355 514.38Z" fill="#53346D" fill-opacity="0.2"/>
</g>
<g clip-path="url(#clip1)">
<path d="M774.525 533.026H468.537C463.11 533.036 457.907 535.197 454.07 539.036C450.232 542.876 448.072 548.08 448.062 553.51V725.099C448.072 730.529 450.232 735.734 454.07 739.573C457.907 743.413 463.11 745.574 468.537 745.583H698.454C702.898 768.379 727.923 785.164 749.749 785.164C757.73 785.154 765.566 783.031 772.463 779.012C773.54 778.387 774.435 777.489 775.056 776.41C775.678 775.33 776.005 774.106 776.005 772.86C776.005 771.614 775.678 770.39 775.056 769.31C774.435 768.23 773.54 767.333 772.463 766.708C768.694 764.367 765.439 761.284 762.897 757.647C760.355 754.009 758.579 749.893 757.676 745.548H774.56C779.975 745.529 785.163 743.369 788.992 739.538C792.822 735.707 794.981 730.517 795 725.099V553.51C794.99 548.08 792.83 542.876 788.992 539.036C785.155 535.197 779.952 533.036 774.525 533.026V533.026ZM780.781 725.064C780.781 725.886 780.619 726.7 780.305 727.459C779.99 728.218 779.53 728.908 778.949 729.49C778.368 730.071 777.678 730.532 776.919 730.846C776.16 731.161 775.346 731.323 774.525 731.323H749.642C747.756 731.323 745.948 732.072 744.615 733.406C743.282 734.74 742.533 736.549 742.533 738.435C742.578 750.244 746.94 761.628 754.796 770.442C753.093 770.73 751.369 770.873 749.642 770.868C733.006 770.868 711.891 755.576 711.891 738.4C711.891 736.513 711.142 734.704 709.809 733.37C708.476 732.037 706.667 731.287 704.782 731.287H468.537C466.878 731.287 465.287 730.628 464.113 729.454C462.94 728.28 462.281 726.688 462.281 725.028V553.51C462.29 551.853 462.952 550.267 464.124 549.095C465.295 547.923 466.881 547.261 468.537 547.251H774.525C775.346 547.251 776.16 547.413 776.919 547.728C777.678 548.042 778.368 548.503 778.949 549.085C779.53 549.666 779.99 550.356 780.305 551.115C780.619 551.874 780.781 552.688 780.781 553.51V725.064Z" fill="#53346D"/>
<path d="M631.2 654.757H511.194C509.308 654.757 507.5 655.506 506.167 656.84C504.833 658.174 504.084 659.983 504.084 661.869C504.084 663.756 504.833 665.565 506.167 666.899C507.5 668.232 509.308 668.982 511.194 668.982H631.2C633.085 668.982 634.894 668.232 636.227 666.899C637.56 665.565 638.309 663.756 638.309 661.869C638.309 659.983 637.56 658.174 636.227 656.84C634.894 655.506 633.085 654.757 631.2 654.757Z" fill="#53346D"/>
<path d="M731.833 603.831H511.194C509.308 603.831 507.5 604.581 506.167 605.914C504.833 607.248 504.084 609.057 504.084 610.944C504.084 612.83 504.833 614.639 506.167 615.973C507.5 617.307 509.308 618.056 511.194 618.056H731.869C733.754 618.056 735.562 617.307 736.896 615.973C738.229 614.639 738.978 612.83 738.978 610.944C738.978 609.057 738.229 607.248 736.896 605.914C735.562 604.581 733.754 603.831 731.869 603.831H731.833Z" fill="#53346D"/>
<path d="M649.684 330H359.764C354.525 330.009 349.504 332.096 345.799 335.802C342.095 339.508 340.009 344.532 340 349.773V528.083C340.009 533.324 342.095 538.348 345.799 542.054C349.504 545.76 354.525 547.846 359.764 547.856H375.334C374.445 551.835 372.771 555.596 370.408 558.919C368.046 562.241 365.043 565.057 361.577 567.202C360.5 567.827 359.605 568.724 358.984 569.804C358.362 570.884 358.035 572.108 358.035 573.354C358.035 574.6 358.362 575.824 358.984 576.904C359.605 577.984 360.5 578.881 361.577 579.507C368.172 583.346 375.666 585.371 383.296 585.374C406.224 585.374 433.062 565.886 433.062 540.743C433.062 538.857 432.313 537.048 430.979 535.714C429.646 534.38 427.838 533.631 425.952 533.631C424.067 533.631 422.259 534.38 420.925 535.714C419.592 537.048 418.843 538.857 418.843 540.743C418.843 556.818 399.043 571.149 383.296 571.149C381.893 571.158 380.491 571.063 379.102 570.865C386.319 562.501 390.304 551.828 390.334 540.779C390.334 538.893 389.585 537.083 388.252 535.75C386.919 534.416 385.111 533.666 383.225 533.666H359.764C358.29 533.657 356.88 533.065 355.841 532.019C354.802 530.973 354.219 529.558 354.219 528.083V349.773C354.228 348.304 354.815 346.899 355.853 345.86C356.891 344.822 358.296 344.234 359.764 344.225H649.684C651.152 344.234 652.557 344.822 653.595 345.86C654.633 346.899 655.22 348.304 655.23 349.773V513.36C655.23 515.247 655.979 517.056 657.312 518.39C658.645 519.723 660.454 520.473 662.339 520.473C664.225 520.473 666.033 519.723 667.366 518.39C668.699 517.056 669.448 515.247 669.448 513.36V349.773C669.439 344.532 667.354 339.508 663.649 335.802C659.945 332.096 654.923 330.009 649.684 330V330Z" fill="#53346D"/>
<path d="M507.355 377.583C498.354 377.592 489.725 381.173 483.361 387.54C476.996 393.907 473.417 402.54 473.407 411.545C473.407 413.431 474.157 415.24 475.49 416.574C476.823 417.908 478.631 418.657 480.517 418.657C482.402 418.657 484.211 417.908 485.544 416.574C486.877 415.24 487.626 413.431 487.626 411.545C487.626 406.31 489.705 401.29 493.405 397.589C497.104 393.887 502.122 391.808 507.355 391.808C512.587 391.808 517.605 393.887 521.305 397.589C525.005 401.29 527.083 406.31 527.083 411.545C527.083 418.657 523.529 422.925 517.059 429.788C509.559 437.826 500.245 447.783 500.245 466.667C500.245 468.553 500.994 470.362 502.328 471.696C503.661 473.03 505.469 473.779 507.355 473.779C509.24 473.779 511.049 473.03 512.382 471.696C513.715 470.362 514.464 468.553 514.464 466.667C514.464 453.402 520.472 446.965 527.439 439.497C534.406 432.029 541.266 424.667 541.266 411.545C541.257 402.547 537.682 393.919 531.326 387.553C524.969 381.187 516.349 377.601 507.355 377.583V377.583Z" fill="#53346D"/>
<path d="M507.355 500.38C511.772 500.38 515.353 496.798 515.353 492.378C515.353 487.959 511.772 484.377 507.355 484.377C502.938 484.377 499.357 487.959 499.357 492.378C499.357 496.798 502.938 500.38 507.355 500.38Z" fill="#53346D"/>
</g>
<defs>
<clipPath id="clip0">
<rect width="455" height="569" fill="white" transform="translate(354 344)"/>
</clipPath>
<clipPath id="clip1">
<rect width="455" height="569" fill="white" transform="translate(340 330)"/>
</clipPath>
</defs>
</svg>
