<svg width="1000" height="1000" viewBox="0 0 1000 1000" fill="none" xmlns="http://www.w3.org/2000/svg">
<path d="M500 929C529.075 929 778.459 825.724 851.687 620.827C915.504 442.261 855.823 178.202 851.888 161.276C851.761 160.733 851.349 160.333 850.808 160.194L500.376 70.0646C500.129 70.0013 499.871 70.0013 499.625 70.0646L149.193 160.194C148.652 160.333 148.239 160.733 148.113 161.276C144.178 178.201 84.4955 442.261 148.313 620.827C221.541 825.724 470.926 929 500 929Z" fill="#56CCF2" fill-opacity="0.2"/>
<path d="M500 860C524.42 860 733.877 773.315 795.38 601.336C848.855 451.806 799.087 230.851 795.573 215.715C795.447 215.172 795.042 214.807 794.501 214.668L500.375 139.07C500.129 139.006 499.871 139.006 499.625 139.07L205.499 214.668C204.959 214.807 204.554 215.172 204.428 215.715C200.914 230.851 151.145 451.806 204.62 601.336C266.123 773.315 475.581 860 500 860Z" fill="#56CCF2"/>
<path d="M375 498.5V727.667C375.008 728.598 375.16 729.521 375.449 730.406C375.502 730.575 375.589 730.722 375.652 730.888C375.752 731.152 375.872 731.389 375.996 731.64C376.263 732.189 376.584 732.709 376.955 733.192C377.13 733.421 377.292 733.639 377.49 733.852C377.606 733.977 377.695 734.116 377.818 734.235C378.483 734.891 379.245 735.441 380.077 735.866L435.188 763.367L563.781 827.533L618.892 855.033C618.973 855.073 619.067 855.056 619.149 855.094C621.573 856.302 624.426 856.302 626.851 855.094C626.933 855.056 627.027 855.073 627.108 855.033L682.219 827.533L810.812 763.367L865.923 735.866C866.755 735.441 867.517 734.891 868.182 734.235C868.305 734.116 868.393 733.977 868.51 733.852C868.707 733.639 868.869 733.421 869.044 733.192C869.416 732.709 869.737 732.189 870.004 731.64C870.127 731.389 870.248 731.152 870.348 730.888C870.411 730.722 870.498 730.575 870.551 730.406C870.84 729.521 870.991 728.598 871 727.667V434.333C871 434.213 870.959 434.1 870.955 433.98C870.946 433.757 870.895 433.546 870.869 433.323C870.818 432.761 870.715 432.205 870.56 431.662C870.501 431.471 870.419 431.299 870.348 431.112C870.27 430.907 870.199 430.711 870.107 430.513C870.065 430.422 870.076 430.324 870.031 430.233C870.007 430.184 869.959 430.157 869.933 430.108C869.668 429.631 869.361 429.178 869.015 428.756C868.885 428.588 868.786 428.412 868.644 428.253C868.547 428.144 868.462 428.03 868.359 427.926C868.27 427.835 868.16 427.776 868.067 427.688L867.993 427.628C867.8 427.452 867.604 427.305 867.398 427.147C867.158 426.93 866.907 426.726 866.645 426.536C866.491 426.442 866.317 426.403 866.159 426.318C866.068 426.269 866.016 426.18 865.923 426.134L810.811 398.634L682.219 334.467L627.108 306.967C624.521 305.678 621.478 305.678 618.891 306.967L563.78 334.467L435.188 398.634L380.076 426.134C379.983 426.18 379.931 426.269 379.839 426.318C379.682 426.403 379.508 426.442 379.354 426.536C379.095 426.725 378.845 426.927 378.607 427.142C378.397 427.303 378.197 427.453 378.001 427.633L377.932 427.688C377.839 427.775 377.729 427.835 377.64 427.925C377.537 428.029 377.452 428.144 377.355 428.253C377.213 428.412 377.115 428.588 376.984 428.756C376.638 429.178 376.331 429.63 376.066 430.107C376.04 430.156 375.992 430.183 375.968 430.233C375.923 430.323 375.934 430.422 375.892 430.512C375.8 430.71 375.729 430.906 375.651 431.112C375.58 431.299 375.498 431.47 375.439 431.662C375.285 432.204 375.181 432.761 375.13 433.323C375.104 433.546 375.053 433.757 375.044 433.98C375.041 434.1 375 434.213 375 434.333V498.5ZM632.185 375.833L668.926 357.5V401.167L632.185 419.5V375.833ZM613.815 419.5L577.074 401.167V357.5L613.815 375.833V419.5ZM563.781 415.033L618.892 442.533C618.972 442.574 619.067 442.556 619.149 442.594C621.573 443.802 624.426 443.802 626.851 442.594C626.933 442.556 627.027 442.574 627.108 442.533L682.219 415.033C685.331 413.481 687.297 410.306 687.296 406.833V357.5L786.163 406.833L747.484 426.134C747.391 426.18 747.339 426.268 747.248 426.318C747.09 426.402 746.916 426.442 746.762 426.536C746.016 427.009 745.343 427.588 744.763 428.253C744.621 428.412 744.523 428.588 744.393 428.756C743.85 429.454 743.413 430.227 743.094 431.051C743.013 431.26 742.913 431.448 742.847 431.662C742.568 432.525 742.419 433.426 742.407 434.333V483.667L678.111 515.75L627.108 490.3C624.522 489.011 621.478 489.011 618.892 490.3L567.889 515.75L503.593 483.667V434.333C503.58 433.426 503.432 432.525 503.153 431.662C503.087 431.448 502.987 431.26 502.906 431.051C502.587 430.227 502.15 429.454 501.607 428.756C501.477 428.588 501.379 428.412 501.237 428.253C500.657 427.588 499.984 427.009 499.238 426.536C499.084 426.442 498.91 426.403 498.752 426.318C498.661 426.269 498.609 426.18 498.516 426.134L459.837 406.833L558.704 357.5V406.833C558.703 410.306 560.669 413.48 563.781 415.033ZM448.481 696.667L485.222 678.333V722L448.481 740.334V696.667ZM439.296 680.75L404.726 663.5L439.296 646.25L473.866 663.5L439.296 680.75ZM498.516 735.867C501.628 734.314 503.593 731.139 503.593 727.667V663.5C503.58 662.593 503.432 661.692 503.153 660.829C503.087 660.614 502.987 660.427 502.906 660.218C502.587 659.394 502.15 658.621 501.607 657.923C501.477 657.755 501.379 657.579 501.237 657.42C500.657 656.754 499.984 656.176 499.238 655.703C499.083 655.607 498.908 655.568 498.749 655.482C498.659 655.434 498.608 655.346 498.516 655.3L443.405 627.8C440.818 626.511 437.775 626.511 435.188 627.8L393.37 648.667V513.333L435.188 534.2C435.269 534.24 435.363 534.222 435.445 534.26C437.87 535.469 440.723 535.469 443.147 534.26C443.229 534.222 443.324 534.24 443.404 534.2L498.515 506.7C499.992 505.957 501.24 504.829 502.126 503.435L558.704 531.667V590.167C558.703 593.639 560.669 596.814 563.781 598.367L613.815 623.333V722.001L563.781 746.967C563.688 747.014 563.636 747.101 563.545 747.15C563.387 747.236 563.213 747.275 563.058 747.37C562.312 747.843 561.639 748.421 561.059 749.087C560.917 749.246 560.819 749.422 560.689 749.589C560.146 750.287 559.709 751.061 559.39 751.884C559.309 752.093 559.209 752.281 559.144 752.495C558.864 753.359 558.716 754.26 558.704 755.167V804.501L459.837 755.167L498.516 735.867ZM448.481 476.667L483.051 493.917L448.481 511.167V476.667ZM577.074 540.833L613.815 559.167V602.834L577.074 584.5V540.833ZM632.185 559.167L668.926 540.833V584.5L632.185 602.834V559.167ZM623 543.25L588.43 526L623 508.75L657.57 526L623 543.25ZM613.815 742.5V767.834L588.43 755.167L613.815 742.5ZM632.185 742.5L657.57 755.167L632.185 767.834V742.5ZM686.856 752.495C686.791 752.281 686.691 752.093 686.61 751.884C686.291 751.061 685.853 750.287 685.311 749.589C685.181 749.422 685.082 749.246 684.941 749.087C684.361 748.421 683.688 747.843 682.941 747.37C682.787 747.275 682.612 747.235 682.455 747.15C682.364 747.101 682.312 747.013 682.22 746.967L632.185 722.001V623.333L682.219 598.367C685.331 596.814 687.297 593.639 687.296 590.167V531.667L743.874 503.435C744.76 504.829 746.007 505.957 747.484 506.7L802.596 534.2C802.676 534.24 802.771 534.222 802.853 534.26C805.277 535.469 808.13 535.469 810.555 534.26C810.636 534.222 810.731 534.24 810.812 534.2L852.63 513.333V648.667L810.812 627.8C808.225 626.511 805.182 626.511 802.596 627.8L747.484 655.3C747.393 655.346 747.341 655.434 747.251 655.482C747.093 655.568 746.917 655.608 746.762 655.703C746.016 656.176 745.343 656.754 744.763 657.42C744.621 657.579 744.523 657.755 744.393 657.923C743.85 658.621 743.413 659.394 743.094 660.218C743.013 660.427 742.913 660.614 742.848 660.829C742.568 661.692 742.42 662.593 742.407 663.5V727.667C742.407 731.139 744.372 734.314 747.484 735.867L786.163 755.167L687.296 804.501V755.167C687.284 754.26 687.136 753.359 686.856 752.495V752.495ZM797.519 511.167L762.949 493.917L797.519 476.667V511.167ZM760.778 678.333L797.519 696.667V740.334L760.778 722V678.333ZM806.704 680.75L772.134 663.5L806.704 646.25L841.274 663.5L806.704 680.75ZM815.889 696.667L852.63 678.333V722L815.889 740.334V696.667ZM852.63 492.834L815.889 511.167V467.5L852.63 449.167V492.834ZM760.778 474.5V449.167L786.163 461.833L760.778 474.5ZM485.222 474.5L459.837 461.833L485.222 449.167V474.5ZM430.111 511.167L393.37 492.834V449.167L430.111 467.5V511.167ZM393.37 678.333L430.111 696.667V740.334L393.37 722V678.333ZM577.074 770L613.815 788.334V832L577.074 813.667V770ZM632.185 832V788.334L668.926 770V813.667L632.185 832ZM841.274 434.333L806.704 451.584L772.134 434.333L806.704 417.083L841.274 434.333ZM623 325.416L657.57 342.667L623 359.917L588.43 342.667L623 325.416ZM439.296 417.083L473.866 434.333L439.296 451.584L404.726 434.333L439.296 417.083Z" fill="#53346D" fill-opacity="0.2"/>
<path d="M363 482.85V712.434C363.008 713.366 363.16 714.291 363.449 715.178C363.502 715.347 363.589 715.495 363.652 715.66C363.752 715.925 363.872 716.162 363.996 716.414C364.263 716.964 364.584 717.485 364.955 717.969C365.13 718.198 365.292 718.416 365.49 718.629C365.606 718.755 365.695 718.894 365.818 719.013C366.483 719.671 367.245 720.222 368.077 720.648L423.188 748.198L551.781 812.481L606.892 840.031C606.973 840.072 607.067 840.054 607.149 840.092C609.573 841.303 612.426 841.303 614.851 840.092C614.933 840.054 615.027 840.072 615.108 840.031L670.219 812.481L798.812 748.198L853.923 720.648C854.755 720.222 855.517 719.671 856.182 719.013C856.305 718.894 856.393 718.755 856.51 718.629C856.707 718.416 856.869 718.198 857.044 717.969C857.416 717.485 857.737 716.964 858.004 716.414C858.127 716.162 858.248 715.925 858.348 715.66C858.411 715.495 858.498 715.347 858.551 715.178C858.84 714.291 858.991 713.366 859 712.434V418.567C859 418.446 858.959 418.333 858.955 418.213C858.946 417.989 858.895 417.778 858.869 417.554C858.818 416.991 858.715 416.434 858.56 415.89C858.501 415.699 858.419 415.527 858.348 415.34C858.27 415.134 858.199 414.937 858.107 414.739C858.065 414.648 858.076 414.55 858.031 414.459C858.007 414.409 857.959 414.383 857.933 414.334C857.668 413.856 857.361 413.402 857.015 412.979C856.885 412.811 856.786 412.635 856.644 412.476C856.547 412.366 856.462 412.252 856.359 412.147C856.27 412.056 856.16 411.997 856.067 411.91L855.993 411.85C855.8 411.672 855.604 411.526 855.398 411.367C855.158 411.15 854.907 410.945 854.645 410.755C854.491 410.661 854.317 410.622 854.159 410.537C854.068 410.488 854.016 410.398 853.923 410.352L798.811 382.802L670.219 318.519L615.108 290.969C612.521 289.677 609.478 289.677 606.891 290.969L551.78 318.519L423.188 382.802L368.076 410.352C367.983 410.399 367.931 410.488 367.839 410.537C367.682 410.622 367.508 410.661 367.354 410.755C367.095 410.944 366.845 411.147 366.607 411.363C366.397 411.524 366.197 411.674 366.001 411.854L365.932 411.909C365.839 411.997 365.729 412.056 365.64 412.147C365.537 412.251 365.452 412.366 365.355 412.475C365.213 412.634 365.115 412.811 364.984 412.979C364.638 413.402 364.331 413.855 364.066 414.333C364.04 414.382 363.992 414.409 363.968 414.459C363.923 414.549 363.934 414.648 363.892 414.739C363.8 414.937 363.729 415.134 363.651 415.34C363.58 415.527 363.498 415.698 363.439 415.89C363.285 416.434 363.181 416.991 363.13 417.554C363.104 417.778 363.053 417.989 363.044 418.213C363.041 418.333 363 418.446 363 418.567V482.85ZM620.185 359.96L656.926 341.593V385.34L620.185 403.707V359.96ZM601.815 403.707L565.074 385.34V341.593L601.815 359.96V403.707ZM551.781 399.232L606.892 426.782C606.972 426.822 607.067 426.804 607.149 426.842C609.573 428.053 612.426 428.053 614.851 426.842C614.933 426.804 615.027 426.822 615.108 426.782L670.219 399.232C673.331 397.676 675.297 394.496 675.296 391.017V341.593L774.163 391.017L735.484 410.352C735.391 410.399 735.339 410.487 735.248 410.536C735.09 410.621 734.916 410.661 734.762 410.755C734.016 411.229 733.343 411.809 732.763 412.476C732.621 412.635 732.523 412.811 732.393 412.979C731.85 413.678 731.413 414.453 731.094 415.278C731.013 415.487 730.913 415.676 730.847 415.89C730.568 416.755 730.419 417.658 730.407 418.567V467.99L666.111 500.132L615.108 474.635C612.522 473.344 609.478 473.344 606.892 474.635L555.889 500.132L491.593 467.99V418.567C491.58 417.658 491.432 416.755 491.153 415.89C491.087 415.676 490.987 415.487 490.906 415.278C490.587 414.453 490.15 413.678 489.607 412.979C489.477 412.811 489.379 412.635 489.237 412.476C488.657 411.809 487.984 411.229 487.238 410.755C487.084 410.661 486.91 410.622 486.752 410.537C486.661 410.488 486.609 410.398 486.516 410.352L447.837 391.017L546.704 341.593V391.017C546.703 394.495 548.669 397.676 551.781 399.232ZM436.481 681.377L473.222 663.01V706.757L436.481 725.123V681.377ZM427.296 665.432L392.726 648.15L427.296 630.869L461.866 648.15L427.296 665.432ZM486.516 720.648C489.628 719.093 491.593 715.912 491.593 712.434V648.15C491.58 647.241 491.432 646.339 491.153 645.474C491.087 645.259 490.987 645.071 490.906 644.862C490.587 644.036 490.15 643.262 489.607 642.563C489.477 642.394 489.379 642.218 489.237 642.059C488.657 641.392 487.984 640.813 487.238 640.339C487.083 640.243 486.908 640.203 486.749 640.118C486.659 640.069 486.608 639.981 486.516 639.935L431.405 612.385C428.818 611.094 425.775 611.094 423.188 612.385L381.37 633.29V497.71L423.188 518.615C423.269 518.655 423.363 518.637 423.445 518.675C425.87 519.886 428.723 519.886 431.147 518.675C431.229 518.637 431.324 518.655 431.404 518.615L486.515 491.065C487.992 490.321 489.24 489.19 490.126 487.794L546.704 516.077V574.684C546.703 578.162 548.669 581.343 551.781 582.898L601.815 607.91V706.757L551.781 731.769C551.688 731.815 551.636 731.903 551.545 731.953C551.387 732.038 551.213 732.078 551.058 732.172C550.312 732.646 549.639 733.225 549.059 733.893C548.917 734.052 548.819 734.228 548.689 734.396C548.146 735.095 547.709 735.87 547.39 736.695C547.309 736.904 547.209 737.092 547.144 737.307C546.864 738.172 546.716 739.075 546.704 739.984V789.407L447.837 739.984L486.516 720.648ZM436.481 460.977L471.051 478.258L436.481 495.54V460.977ZM565.074 525.26L601.815 543.627V587.373L565.074 569.007V525.26ZM620.185 543.627L656.926 525.26V569.007L620.185 587.373V543.627ZM611 527.682L576.43 510.4L611 493.119L645.57 510.4L611 527.682ZM601.815 727.294V752.673L576.43 739.984L601.815 727.294ZM620.185 727.294L645.57 739.984L620.185 752.674V727.294ZM674.856 737.307C674.791 737.092 674.691 736.904 674.61 736.695C674.291 735.87 673.853 735.095 673.311 734.396C673.181 734.228 673.082 734.052 672.941 733.893C672.361 733.225 671.688 732.646 670.941 732.172C670.787 732.078 670.612 732.037 670.455 731.952C670.364 731.903 670.312 731.815 670.22 731.768L620.185 706.757V607.91L670.219 582.898C673.331 581.343 675.297 578.162 675.296 574.684V516.077L731.874 487.794C732.76 489.19 734.007 490.321 735.484 491.065L790.596 518.615C790.676 518.655 790.771 518.637 790.853 518.675C793.277 519.886 796.13 519.886 798.555 518.675C798.636 518.637 798.731 518.655 798.812 518.615L840.63 497.71V633.29L798.812 612.385C796.225 611.094 793.182 611.094 790.596 612.385L735.484 639.935C735.393 639.981 735.341 640.069 735.251 640.118C735.093 640.203 734.917 640.243 734.762 640.339C734.016 640.813 733.343 641.392 732.763 642.059C732.621 642.218 732.523 642.394 732.393 642.563C731.85 643.262 731.413 644.036 731.094 644.862C731.013 645.071 730.913 645.259 730.848 645.474C730.568 646.339 730.42 647.241 730.407 648.15V712.434C730.407 715.912 732.372 719.093 735.484 720.648L774.163 739.984L675.296 789.407V739.984C675.284 739.075 675.136 738.172 674.856 737.307V737.307ZM785.519 495.54L750.949 478.258L785.519 460.977V495.54ZM748.778 663.01L785.519 681.377V725.123L748.778 706.757V663.01ZM794.704 665.432L760.134 648.15L794.704 630.869L829.274 648.15L794.704 665.432ZM803.889 681.377L840.63 663.01V706.757L803.889 725.123V681.377ZM840.63 477.173L803.889 495.54V451.794L840.63 433.427V477.173ZM748.778 458.807V433.427L774.163 446.117L748.778 458.807ZM473.222 458.807L447.837 446.117L473.222 433.427V458.807ZM418.111 495.54L381.37 477.173V433.427L418.111 451.794V495.54ZM381.37 663.01L418.111 681.377V725.123L381.37 706.757V663.01ZM565.074 754.844L601.815 773.21V816.957L565.074 798.59V754.844ZM620.185 816.957V773.21L656.926 754.844V798.59L620.185 816.957ZM829.274 418.567L794.704 435.848L760.134 418.567L794.704 401.285L829.274 418.567ZM611 309.452L645.57 326.733L611 344.015L576.43 326.733L611 309.452ZM427.296 401.285L461.866 418.567L427.296 435.848L392.726 418.567L427.296 401.285Z" fill="#53346D"/>
</svg>
