<svg width="1000" height="1000" viewBox="0 0 1000 1000" fill="none" xmlns="http://www.w3.org/2000/svg">
<path d="M500 929C529.075 929 778.459 825.724 851.687 620.827C915.504 442.261 855.823 178.202 851.888 161.276C851.761 160.733 851.349 160.333 850.808 160.194L500.376 70.0646C500.129 70.0013 499.871 70.0013 499.625 70.0646L149.193 160.194C148.652 160.333 148.239 160.733 148.113 161.276C144.178 178.201 84.4955 442.261 148.313 620.827C221.541 825.724 470.926 929 500 929Z" fill="#56CCF2" fill-opacity="0.2"/>
<path d="M500 860C524.42 860 733.877 773.315 795.38 601.336C848.855 451.806 799.087 230.851 795.573 215.715C795.447 215.172 795.042 214.807 794.501 214.668L500.375 139.07C500.129 139.006 499.871 139.006 499.625 139.07L205.499 214.668C204.959 214.807 204.554 215.172 204.428 215.715C200.914 230.851 151.145 451.806 204.62 601.336C266.123 773.315 475.581 860 500 860Z" fill="#56CCF2"/>
<g clip-path="url(#clip0)">
<path d="M813.312 849.4V287H356.688V849.4H813.312ZM374.25 304.575H795.75V831.825H374.25V304.575Z" fill="#53346D" fill-opacity="0.2"/>
<path d="M720.626 697.754H671.636V711.665H720.626V697.754Z" fill="#53346D" fill-opacity="0.2"/>
<path d="M521.74 699.951H472.75V713.862H521.74V699.951Z" fill="#53346D" fill-opacity="0.2"/>
<path d="M521.74 746.788H472.75V760.699H521.74V746.788Z" fill="#53346D" fill-opacity="0.2"/>
<path d="M662.126 676.541H636.529V690.443H662.126V676.541Z" fill="#53346D" fill-opacity="0.2"/>
<path d="M603.625 676.541H578.037V690.443H603.625V676.541Z" fill="#53346D" fill-opacity="0.2"/>
<path d="M591.928 746.788H554.634V760.699H591.928V746.788Z" fill="#53346D" fill-opacity="0.2"/>
<path d="M591.928 699.951H542.938V713.862H591.928V699.951Z" fill="#53346D" fill-opacity="0.2"/>
<path d="M650.42 699.951H601.429V713.862H650.42V699.951Z" fill="#53346D" fill-opacity="0.2"/>
<path d="M532.199 725.637H486.009V739.539H532.199V725.637Z" fill="#53346D" fill-opacity="0.2"/>
<path d="M591.929 770.207H472.75V784.109H591.929V770.207Z" fill="#53346D" fill-opacity="0.2"/>
<path d="M673.822 770.207H624.832V784.109H673.822V770.207Z" fill="#53346D" fill-opacity="0.2"/>
<path d="M545.133 676.541H472.75V690.443H545.133V676.541Z" fill="#53346D" fill-opacity="0.2"/>
<path d="M720.627 420.342H695.029V434.243H720.627V420.342Z" fill="#53346D" fill-opacity="0.2"/>
<path d="M521.74 375.71H472.75V389.612H521.74V375.71Z" fill="#53346D" fill-opacity="0.2"/>
<path d="M510.034 399.12H484.446V413.022H510.034V399.12Z" fill="#53346D" fill-opacity="0.2"/>
<path d="M662.125 422.538H601.429V436.44H662.125V422.538Z" fill="#53346D" fill-opacity="0.2"/>
<path d="M662.126 445.948H613.135V459.85H662.126V445.948Z" fill="#53346D" fill-opacity="0.2"/>
<path d="M615.34 352.291H516.427V366.193H615.34V352.291Z" fill="#53346D" fill-opacity="0.2"/>
<path d="M580.232 422.538H554.634V436.44H580.232V422.538Z" fill="#53346D" fill-opacity="0.2"/>
<path d="M591.928 445.948H566.34V459.85H591.928V445.948Z" fill="#53346D" fill-opacity="0.2"/>
<path d="M627.027 375.71H554.634V389.612H627.027V375.71Z" fill="#53346D" fill-opacity="0.2"/>
<path d="M603.625 399.12H531.242V413.022H603.625V399.12Z" fill="#53346D" fill-opacity="0.2"/>
<path d="M533.437 422.538H461.044V436.44H533.437V422.538Z" fill="#53346D" fill-opacity="0.2"/>
<path d="M521.74 445.948H449.347V459.85H521.74V445.948Z" fill="#53346D" fill-opacity="0.2"/>
<path d="M546.169 610.749L481.443 578.279L545.563 546.108L546.169 545.801V531.714L466.541 572.761L465.953 573.068V583.49L546.169 624.844V610.749Z" fill="#53346D" fill-opacity="0.2"/>
<path d="M615.945 506.67H602.15L554.389 630.872H568.009L615.357 508.164L615.945 506.67Z" fill="#53346D" fill-opacity="0.2"/>
<path d="M704.048 572.901L625.42 532.54L623.822 531.714V545.801L689.04 578.279L624.437 610.442L623.822 610.749V624.844L704.048 583.657V572.901Z" fill="#53346D" fill-opacity="0.2"/>
</g>
<g clip-path="url(#clip1)">
<path d="M795.312 832.4V270H338.688V832.4H795.312ZM356.25 287.575H777.75V814.825H356.25V287.575Z" fill="#53346D"/>
<path d="M702.626 680.754H653.636V694.665H702.626V680.754Z" fill="#53346D"/>
<path d="M503.74 682.951H454.75V696.862H503.74V682.951Z" fill="#53346D"/>
<path d="M503.74 729.788H454.75V743.699H503.74V729.788Z" fill="#53346D"/>
<path d="M644.126 659.541H618.529V673.443H644.126V659.541Z" fill="#53346D"/>
<path d="M585.625 659.541H560.037V673.443H585.625V659.541Z" fill="#53346D"/>
<path d="M573.928 729.788H536.634V743.699H573.928V729.788Z" fill="#53346D"/>
<path d="M573.928 682.951H524.938V696.862H573.928V682.951Z" fill="#53346D"/>
<path d="M632.42 682.951H583.429V696.862H632.42V682.951Z" fill="#53346D"/>
<path d="M514.199 708.637H468.009V722.539H514.199V708.637Z" fill="#53346D"/>
<path d="M573.929 753.207H454.75V767.109H573.929V753.207Z" fill="#53346D"/>
<path d="M655.822 753.207H606.832V767.109H655.822V753.207Z" fill="#53346D"/>
<path d="M527.133 659.541H454.75V673.443H527.133V659.541Z" fill="#53346D"/>
<path d="M702.627 403.342H677.029V417.243H702.627V403.342Z" fill="#53346D"/>
<path d="M503.74 358.71H454.75V372.612H503.74V358.71Z" fill="#53346D"/>
<path d="M492.034 382.12H466.446V396.022H492.034V382.12Z" fill="#53346D"/>
<path d="M644.125 405.538H583.429V419.44H644.125V405.538Z" fill="#53346D"/>
<path d="M644.126 428.948H595.135V442.85H644.126V428.948Z" fill="#53346D"/>
<path d="M597.34 335.291H498.427V349.193H597.34V335.291Z" fill="#53346D"/>
<path d="M562.232 405.538H536.634V419.44H562.232V405.538Z" fill="#53346D"/>
<path d="M573.928 428.948H548.34V442.85H573.928V428.948Z" fill="#53346D"/>
<path d="M609.027 358.71H536.634V372.612H609.027V358.71Z" fill="#53346D"/>
<path d="M585.625 382.12H513.242V396.022H585.625V382.12Z" fill="#53346D"/>
<path d="M515.437 405.538H443.044V419.44H515.437V405.538Z" fill="#53346D"/>
<path d="M503.74 428.948H431.347V442.85H503.74V428.948Z" fill="#53346D"/>
<path d="M528.169 593.749L463.443 561.279L527.563 529.108L528.169 528.801V514.714L448.541 555.761L447.953 556.068V566.49L528.169 607.844V593.749Z" fill="#53346D"/>
<path d="M597.945 489.67H584.15L536.389 613.872H550.009L597.357 491.164L597.945 489.67Z" fill="#53346D"/>
<path d="M686.048 555.901L607.42 515.54L605.822 514.714V528.801L671.04 561.279L606.437 593.442L605.822 593.749V607.844L686.048 566.657V555.901Z" fill="#53346D"/>
</g>
<defs>
<clipPath id="clip0">
<rect width="562" height="703" fill="white" transform="translate(304 287)"/>
</clipPath>
<clipPath id="clip1">
<rect width="562" height="703" fill="white" transform="translate(286 270)"/>
</clipPath>
</defs>
</svg>
