<svg width="930" height="295" viewBox="0 0 930 295" fill="none" xmlns="http://www.w3.org/2000/svg">
<path fill-rule="evenodd" clip-rule="evenodd" d="M251.921 189.151C226.742 259.525 140.999 294.997 130.999 294.997C126.117 294.997 103.21 286.553 78.1009 269.732C93.6009 267.197 108.312 261.569 121.695 254.32C155.367 236.079 184.367 205.578 202.593 177.206L214.538 183.817C215.937 184.59 217.632 183.507 217.515 181.917L215.499 153.577C215.937 152.594 216.359 151.621 216.749 150.657L215.249 150.033L212.765 115.189C212.663 113.743 211.109 112.881 209.82 113.56L150.609 144.895C149.187 145.642 149.171 147.653 150.57 148.425L162.952 155.273C148.562 176.838 125.773 200.715 100.171 214.585C83.1556 223.801 66.6243 227.673 51.4681 225.342C44.6243 224.289 37.3665 221.868 29.89 217.376L31.1087 217.571C47.8822 220.15 63.9993 215.544 77.8509 208.04C98.3743 196.927 116.062 178.334 127.171 161.056L135.718 165.782C136.499 166.218 137.468 165.608 137.398 164.712L134.445 123.295C134.39 122.478 133.507 121.992 132.781 122.375L96.015 141.825C95.2181 142.246 95.2181 143.379 95.9993 143.814L104.812 148.687C95.8509 162.14 81.6556 177.015 65.6868 185.667C55.0618 191.418 44.64 193.894 34.9837 192.412C25.7572 190.994 15.515 185.697 5.2806 172.592C-8.0944 114.241 7.92122 40.49 9.88216 31.8552C10.0072 31.3113 10.4134 30.9314 10.9603 30.7927L130.624 0.048584C130.867 -0.0148926 131.124 -0.0148926 131.374 0.048584L251.038 30.7927C251.577 30.9314 251.992 31.3113 252.117 31.8552C254.273 41.3318 273.351 129.248 251.921 189.151Z" fill="white"/>
<path d="M326.083 69.0476V123H311.395V69.0476H292.675V57.1436H344.707V69.0476H326.083Z" fill="white"/>
<path d="M392.577 123V95.5436H369.825V123H354.945V57.1436H369.729V83.2556H392.577V57.1436H407.361V123H392.577Z" fill="white"/>
<path d="M423.912 123V57.1436H470.28L468.648 68.9516H438.504V83.3516H466.632V95.1596H438.504V111.192H468.936L470.568 123H423.912Z" fill="white"/>
<path d="M550.573 68.9516H522.157V84.6956H547.693V96.5036H522.157V123H507.565V57.1436H552.109L550.573 68.9516Z" fill="white"/>
<path d="M602.65 110.04H576.442L571.834 123H557.53L581.434 57.1436H599.098L623.002 123H607.45L602.65 110.04ZM580.474 98.8076H598.714C596.282 91.5756 593.338 82.9676 589.882 72.9836H589.402L580.474 98.8076Z" fill="white"/>
<path d="M645.903 96.8876C645.903 101.752 647.215 105.528 649.839 108.216C652.463 110.84 655.791 112.152 659.823 112.152C664.367 112.152 667.727 110.936 669.903 108.504C672.079 106.008 673.167 102.2 673.167 97.0796H686.703C686.703 102.712 685.551 107.576 683.247 111.672C681.007 115.704 677.903 118.776 673.935 120.888C669.967 122.936 665.487 123.96 660.495 123.96H659.151C653.647 123.96 648.719 122.84 644.367 120.6C640.015 118.36 636.591 115.064 634.095 110.712C631.599 106.296 630.351 100.984 630.351 94.7756V85.3676C630.351 79.3516 631.599 74.1356 634.095 69.7196C636.591 65.3036 639.983 61.9436 644.271 59.6396C648.623 57.3356 653.455 56.1836 658.767 56.1836H660.111C665.231 56.1836 669.775 57.2076 673.743 59.2556C677.775 61.2396 680.943 64.2796 683.247 68.3756C685.551 72.4076 686.703 77.3676 686.703 83.2556H672.591C672.591 78.2636 671.471 74.4876 669.231 71.9276C667.055 69.3036 663.887 67.9916 659.727 67.9916C655.695 67.9916 652.367 69.3356 649.743 72.0236C647.183 74.6476 645.903 78.3916 645.903 83.2556V96.8876Z" fill="white"/>
<path d="M727.946 69.0476V123H713.258V69.0476H694.538V57.1436H746.57V69.0476H727.946Z" fill="white"/>
<path d="M813.256 94.7756C813.256 100.792 811.944 106.008 809.32 110.424C806.696 114.84 803.144 118.2 798.664 120.504C794.248 122.808 789.32 123.96 783.88 123.96C778.44 123.96 773.48 122.808 769 120.504C764.584 118.2 761.064 114.84 758.44 110.424C755.816 106.008 754.504 100.792 754.504 94.7756V85.3676C754.504 79.3516 755.816 74.1356 758.44 69.7196C761.064 65.3036 764.584 61.9436 769 59.6396C773.48 57.3356 778.44 56.1836 783.88 56.1836C789.32 56.1836 794.248 57.3356 798.664 59.6396C803.144 61.9436 806.696 65.3036 809.32 69.7196C811.944 74.1356 813.256 79.3516 813.256 85.3676V94.7756ZM797.704 83.2556C797.704 78.3916 796.424 74.6476 793.864 72.0236C791.304 69.3356 787.976 67.9916 783.88 67.9916C779.784 67.9916 776.456 69.3356 773.896 72.0236C771.336 74.6476 770.056 78.3916 770.056 83.2556V96.8876C770.056 101.752 771.336 105.528 773.896 108.216C776.456 110.84 779.784 112.152 783.88 112.152C787.976 112.152 791.304 110.84 793.864 108.216C796.424 105.528 797.704 101.752 797.704 96.8876V83.2556Z" fill="white"/>
<path d="M827.368 57.1436H857.704V68.9516H850.024V111.192H857.704V123H827.368V111.192H835.144V68.9516H827.368V57.1436Z" fill="white"/>
<path d="M899.17 57.1436C904.61 57.1436 909.538 58.2956 913.954 60.5996C918.434 62.9036 921.986 66.2636 924.61 70.6796C927.234 75.0956 928.546 80.3116 928.546 86.3276V93.8156C928.546 99.8316 927.234 105.048 924.61 109.464C921.986 113.88 918.434 117.24 913.954 119.544C909.538 121.848 904.61 123 899.17 123H874.21V57.1436H899.17ZM889.09 111.192H899.17C903.266 111.192 906.594 109.88 909.154 107.256C911.714 104.568 912.994 100.792 912.994 95.9276V84.2156C912.994 79.3516 911.714 75.6076 909.154 72.9836C906.594 70.2956 903.266 68.9516 899.17 68.9516H889.09V111.192Z" fill="white"/>
<path d="M360.547 237H339.619L335.683 225.288H314.755L310.915 237H291.523L313.507 171.144H338.563L360.547 237ZM325.027 191.4L319.363 211.368H331.075L325.507 191.4H325.027Z" fill="white"/>
<path d="M431.586 216.072C431.586 220.488 430.498 224.36 428.322 227.688C426.21 230.952 423.202 233.48 419.298 235.272C415.394 237.064 410.85 237.96 405.666 237.96H401.538C396.354 237.96 391.81 237.064 387.906 235.272C384.002 233.48 380.962 230.952 378.786 227.688C376.674 224.36 375.618 220.488 375.618 216.072V171.144H395.874V215.784C395.874 217.896 396.61 219.624 398.082 220.968C399.618 222.312 401.474 222.984 403.65 222.984C405.826 222.984 407.65 222.312 409.122 220.968C410.658 219.624 411.426 217.896 411.426 215.784V171.144H431.586V216.072Z" fill="white"/>
<path d="M501.908 186.984H485.204V237H465.236V186.984H448.532V171.144H501.908V186.984Z" fill="white"/>
<path d="M575.342 237H555.182V211.368H539.63V237H519.374V171.144H539.534V195.432H555.086V171.144H575.342V237Z" fill="white"/>
<path d="M628.552 170.376C633.8 170.376 638.6 171.688 642.952 174.312C647.368 176.872 650.856 180.36 653.416 184.776C656.04 189.128 657.352 193.928 657.352 199.176V209.16C657.352 214.408 656.04 219.24 653.416 223.656C650.856 228.008 647.368 231.496 642.952 234.12C638.6 236.68 633.8 237.96 628.552 237.96H623.176C617.928 237.96 613.096 236.68 608.68 234.12C604.328 231.496 600.84 228.008 598.216 223.656C595.656 219.24 594.376 214.408 594.376 209.16V199.176C594.376 193.928 595.656 189.128 598.216 184.776C600.84 180.36 604.328 176.872 608.68 174.312C613.096 171.688 617.928 170.376 623.176 170.376H628.552ZM625.672 185.16C622.984 185.16 620.712 186.088 618.856 187.944C617 189.8 616.072 192.072 616.072 194.76V213.288C616.072 215.976 617 218.248 618.856 220.104C620.712 221.96 622.984 222.888 625.672 222.888H626.152C628.84 222.888 631.112 221.96 632.968 220.104C634.824 218.248 635.752 215.976 635.752 213.288V194.76C635.752 192.072 634.824 189.8 632.968 187.944C631.112 186.088 628.84 185.16 626.152 185.16H625.672Z" fill="white"/>
<path d="M713.298 171.144C716.434 171.144 719.378 171.848 722.13 173.256C724.946 174.6 727.218 176.52 728.946 179.016C730.674 181.448 731.538 184.264 731.538 187.464C731.538 189.768 730.994 192.04 729.906 194.28C728.882 196.52 727.474 198.44 725.682 200.04C723.89 201.64 721.906 202.632 719.73 203.016V203.496C723.25 204.584 725.874 206.632 727.602 209.64C729.394 212.584 730.29 216.168 730.29 220.392C730.29 223.4 730.578 225.992 731.154 228.168C731.73 230.28 733.074 231.624 735.186 232.2V236.136C732.242 237.352 728.402 237.96 723.666 237.96C719.122 237.96 715.73 237.032 713.49 235.176C711.25 233.256 710.13 230.056 710.13 225.576C710.13 221.352 709.586 217.96 708.498 215.4C707.474 212.776 705.17 211.464 701.586 211.464H696.018V237H676.338V171.144H713.298ZM696.018 196.776H706.194C707.538 196.776 708.658 196.328 709.554 195.432C710.514 194.472 710.994 193.32 710.994 191.976V191.016C710.994 189.672 710.514 188.552 709.554 187.656C708.658 186.696 707.538 186.216 706.194 186.216H696.018V196.776Z" fill="white"/>
<path d="M786.223 185.256H778.447V222.792H786.223V237H750.319V222.792H758.095V185.256H750.319V171.144H786.223V185.256Z" fill="white"/>
<path d="M855.083 186.984H838.379V237H818.411V186.984H801.707V171.144H855.083V186.984Z" fill="white"/>
<path d="M908.165 211.848V237H888.101V211.848L866.213 171.144H888.869L898.757 192.744H899.237L909.317 171.144H929.957L908.165 211.848Z" fill="white"/>
</svg>
