<?xml version="1.0" encoding="utf-8"?>
<!-- Generator: Adobe Illustrator 23.0.1, SVG Export Plug-In . SVG Version: 6.00 Build 0)  -->
<svg version="1.1" id="Layer_1" xmlns="http://www.w3.org/2000/svg" xmlns:xlink="http://www.w3.org/1999/xlink" x="0px" y="0px"
	 viewBox="0 0 100 113.19" style="enable-background:new 0 0 100 113.19;" xml:space="preserve">
<style type="text/css">
	.st0{fill:url(#path1411_1_);}
</style>
<g id="g10" transform="matrix(1.3333333,0,0,-1.3333333,0,490.20667)">
	<linearGradient id="path1411_1_" gradientUnits="userSpaceOnUse" x1="37.5324" y1="282.945" x2="37.5324" y2="396.1403">
		<stop  offset="1.331947e-07" style="stop-color:#010001"/>
		<stop  offset="1" style="stop-color:#270048;stop-opacity:0.7"/>
	</linearGradient>
	<path id="path1411" class="st0" d="M35.37,283.4c-3.44,1.17-12.65,6.06-12.9,6.85c-0.05,0.16,0.61,0.41,1.69,0.65
		c11.15,2.48,23.92,11.98,32.38,24.09c0.65,0.94,1.29,1.71,1.41,1.71c0.12,0,1.06-0.46,2.1-1.02c1.09-0.6,2.03-0.97,2.24-0.89
		c0.28,0.11,0.36,0.47,0.36,1.54c0,1.72-1.09,18.03-1.24,18.71c-0.06,0.27-0.28,0.55-0.49,0.63c-0.24,0.09-3.54-1.54-9.27-4.59
		c-10.44-5.56-10.05-5.18-6.96-6.9c1.06-0.59,1.96-1.18,2.01-1.31c0.04-0.13-0.64-1.2-1.53-2.38c-7.41-9.86-16.84-16.52-25.32-17.88
		c-3.32-0.53-7.34,0.06-10.2,1.51c-0.59,0.3-1.11,0.62-1.17,0.71c-0.06,0.1,1.29,0.18,3,0.18c3.89,0.01,5.85,0.49,9.72,2.37
		c4.91,2.4,9.96,6.7,13.7,11.67l1.65,2.2l1.12-0.57c1.24-0.63,1.72-0.7,1.86-0.28c0.14,0.39-0.66,12.14-0.84,12.44
		c-0.08,0.13-0.28,0.24-0.45,0.24c-0.17,0-2.7-1.27-5.61-2.83c-5.76-3.07-6.13-3.39-4.73-4.16c1.85-1.01,1.84-0.94,0.38-2.85
		c-1.71-2.23-5.56-5.92-7.56-7.26c-2.25-1.5-4.66-2.6-6.64-3.04c-4.11-0.91-7.67,0.23-10.97,3.53c-1.95,1.95-1.89,1.77-2.65,7.29
		c-0.48,3.51-0.55,14.3-0.12,18.75c0.53,5.47,2.21,15.99,2.61,16.4c0.06,0.06,7.87,2.09,17.35,4.52l17.25,4.42l17.25-4.42
		c9.49-2.43,17.29-4.46,17.35-4.52c0.4-0.4,2.09-11.02,2.61-16.4c0.44-4.48,0.37-15.25-0.12-18.75c-1.26-9.09-3.49-14.73-8.36-21.19
		c-1.91-2.54-7.06-7.62-9.93-9.8c-4.72-3.59-10.84-7.11-15.48-8.9C38.03,282.76,37.41,282.71,35.37,283.4L35.37,283.4z"/>
</g>
</svg>
