<svg width="262" height="295" viewBox="0 0 262 295" fill="none" xmlns="http://www.w3.org/2000/svg">
<path fill-rule="evenodd" clip-rule="evenodd" d="M251.921 189.151C226.742 259.525 140.999 294.997 130.999 294.997C126.117 294.997 103.21 286.553 78.1009 269.732C93.6009 267.197 108.312 261.569 121.695 254.32C155.367 236.079 184.367 205.578 202.593 177.206L214.538 183.817C215.937 184.59 217.632 183.507 217.515 181.917L215.499 153.577C215.937 152.594 216.359 151.621 216.749 150.657L215.249 150.033L212.765 115.189C212.663 113.743 211.109 112.881 209.82 113.56L150.609 144.895C149.187 145.642 149.171 147.653 150.57 148.425L162.952 155.273C148.562 176.838 125.773 200.715 100.171 214.585C83.1556 223.801 66.6243 227.673 51.4681 225.342C44.6243 224.289 37.3665 221.868 29.89 217.376L31.1087 217.571C47.8822 220.15 63.9993 215.544 77.8509 208.04C98.3743 196.927 116.062 178.334 127.171 161.056L135.718 165.782C136.499 166.218 137.468 165.608 137.398 164.712L134.445 123.295C134.39 122.478 133.507 121.992 132.781 122.375L96.015 141.825C95.2181 142.246 95.2181 143.379 95.9993 143.814L104.812 148.687C95.8509 162.14 81.6556 177.015 65.6868 185.667C55.0618 191.418 44.64 193.894 34.9837 192.412C25.7572 190.994 15.515 185.697 5.2806 172.592C-8.0944 114.241 7.92122 40.49 9.88216 31.8552C10.0072 31.3113 10.4134 30.9314 10.9603 30.7927L130.624 0.048584C130.867 -0.0148926 131.124 -0.0148926 131.374 0.048584L251.038 30.7927C251.577 30.9314 251.992 31.3113 252.117 31.8552C254.273 41.3318 273.351 129.248 251.921 189.151Z" fill="white"/>
</svg>
