<svg width="500" height="564" viewBox="0 0 500 564" fill="none" xmlns="http://www.w3.org/2000/svg">
<path fill-rule="evenodd" clip-rule="evenodd" d="M480.764 361.047C432.714 495.36 269.077 563.059 249.999 563.059C239.093 563.059 180.944 540.934 124.154 496.888C158.729 495.174 192.09 483.836 222.474 467.374C283.067 434.546 335.6 379.327 368.63 328.29L412.38 352.497C413.775 353.269 415.473 352.186 415.36 350.597L405.847 217.096C405.743 215.65 404.185 214.788 402.902 215.467L284.437 278.159C283.027 278.905 283.007 280.916 284.402 281.688L328.991 306.358C299.794 350.586 253.47 399.182 200.946 427.639C165.878 446.638 129.768 455.739 95.1076 450.411C85.9563 449.004 76.6783 446.557 67.3374 442.866C59.1666 433.164 51.4854 422.877 44.5069 412.006C49.4015 413.427 54.3563 414.519 59.3633 415.288C91.3855 420.21 122.137 411.418 148.578 397.096C187.732 375.889 221.487 340.401 242.704 307.426L259.009 316.446C260.512 317.276 262.339 316.113 262.217 314.404L256.583 235.356C256.472 233.799 254.793 232.87 253.411 233.601L183.247 270.722C181.73 271.525 181.71 273.687 183.212 274.518L200.022 283.817C182.928 309.492 155.837 337.884 125.353 354.396C105.088 365.372 85.1888 370.1 66.7744 367.27C49.1691 364.564 29.6296 354.454 10.0854 329.446C-15.9349 215.969 16.2874 71.9695 19.0488 60.0369C19.1746 59.493 19.573 59.1558 20.1136 59.0169L249.624 0.0464136C249.87 -0.0167742 250.128 -0.0167728 250.374 0.0464149L479.885 59.0169C480.426 59.1558 480.824 59.493 480.95 60.0369C483.975 73.1115 522.371 244.743 480.764 361.047Z" fill="url(#paint0_linear)"/>
<defs>
<linearGradient id="paint0_linear" x1="250.797" y1="27.9233" x2="250.797" y2="563.573" gradientUnits="userSpaceOnUse">
<stop stop-color="#53346D"/>
<stop offset="1"/>
</linearGradient>
</defs>
</svg>
