<svg width="960" height="295" viewBox="0 0 960 295" fill="none" xmlns="http://www.w3.org/2000/svg">
<path fill-rule="evenodd" clip-rule="evenodd" d="M251.92 189.15C226.742 259.525 140.996 294.996 131 294.996C126.122 294.996 103.213 286.552 78.1047 269.731C93.6033 267.195 108.313 261.568 121.694 254.319C155.366 236.078 184.365 205.576 202.587 177.205L214.539 183.817C215.934 184.589 217.632 183.506 217.519 181.917L215.499 153.575C215.935 152.593 216.353 151.62 216.752 150.657L215.247 150.032L212.764 115.189C212.66 113.742 211.102 112.881 209.819 113.56L150.602 144.895C149.191 145.641 149.171 147.652 150.566 148.424L162.946 155.273C148.557 176.837 125.77 200.714 100.167 214.583C83.1557 223.799 66.6272 227.672 51.4649 225.341C44.6129 224.288 37.3577 221.865 29.8735 217.369C30.2826 217.44 30.6923 217.507 31.1027 217.57C47.8823 220.149 63.9961 215.543 77.8513 208.039C98.3679 196.927 116.055 178.333 127.173 161.055L135.717 165.781C136.504 166.216 137.462 165.607 137.398 164.711L134.446 123.293C134.387 122.478 133.508 121.991 132.783 122.374L96.018 141.824C95.2228 142.245 95.2122 143.378 95.9994 143.813L104.808 148.685C95.8507 162.138 81.6548 177.014 65.6811 185.665C55.0626 191.416 44.6352 193.894 34.9861 192.411C25.7625 190.993 15.5257 185.698 5.28626 172.599C-8.09733 114.248 7.91663 40.4893 9.88503 31.8544C10.0091 31.3101 10.4172 30.931 10.9579 30.7921L130.625 0.0473831C130.871 -0.0157948 131.129 -0.0157942 131.374 0.0473838L251.041 30.7921C251.582 30.931 251.99 31.3101 252.114 31.8544C254.274 41.331 273.352 129.247 251.92 189.15Z" fill="url(#paint0_linear)"/>
<path d="M326.08 69.048V123H311.392V69.048H292.672V57.144H344.704V69.048H326.08ZM392.573 123V95.544H369.821V123H354.941V57.144H369.725V83.256H392.573V57.144H407.357V123H392.573ZM423.909 123V57.144H470.277L468.645 68.952H438.501V83.352H466.629V95.16H438.501V111.192H468.933L470.565 123H423.909ZM550.569 68.952H522.153V84.696H547.689V96.504H522.153V123H507.561V57.144H552.105L550.569 68.952ZM602.647 110.04H576.439L571.831 123H557.527L581.431 57.144H599.095L622.999 123H607.447L602.647 110.04ZM580.471 98.808H598.711C596.279 91.576 593.335 82.968 589.879 72.984H589.399L580.471 98.808ZM645.9 96.888C645.9 101.752 647.212 105.528 649.836 108.216C652.46 110.84 655.788 112.152 659.82 112.152C664.364 112.152 667.724 110.936 669.9 108.504C672.076 106.008 673.164 102.2 673.164 97.08H686.7C686.7 102.712 685.548 107.576 683.243 111.672C681.004 115.704 677.9 118.776 673.931 120.888C669.964 122.936 665.484 123.96 660.492 123.96H659.148C653.644 123.96 648.716 122.84 644.364 120.6C640.012 118.36 636.588 115.064 634.092 110.712C631.596 106.296 630.348 100.984 630.348 94.776V85.368C630.348 79.352 631.596 74.136 634.092 69.72C636.588 65.304 639.98 61.944 644.268 59.64C648.62 57.336 653.452 56.184 658.764 56.184H660.108C665.228 56.184 669.772 57.208 673.74 59.256C677.772 61.24 680.94 64.28 683.243 68.376C685.548 72.408 686.7 77.368 686.7 83.256H672.588C672.588 78.264 671.468 74.488 669.228 71.928C667.052 69.304 663.884 67.992 659.724 67.992C655.692 67.992 652.364 69.336 649.74 72.024C647.18 74.648 645.9 78.392 645.9 83.256V96.888ZM727.943 69.048V123H713.255V69.048H694.535V57.144H746.567V69.048H727.943ZM813.252 94.776C813.252 100.792 811.94 106.008 809.316 110.424C806.692 114.84 803.14 118.2 798.66 120.504C794.244 122.808 789.316 123.96 783.876 123.96C778.436 123.96 773.476 122.808 768.996 120.504C764.58 118.2 761.06 114.84 758.436 110.424C755.812 106.008 754.5 100.792 754.5 94.776V85.368C754.5 79.352 755.812 74.136 758.436 69.72C761.06 65.304 764.58 61.944 768.996 59.64C773.476 57.336 778.436 56.184 783.876 56.184C789.316 56.184 794.244 57.336 798.66 59.64C803.14 61.944 806.692 65.304 809.316 69.72C811.94 74.136 813.252 79.352 813.252 85.368V94.776ZM797.7 83.256C797.7 78.392 796.42 74.648 793.86 72.024C791.3 69.336 787.972 67.992 783.876 67.992C779.78 67.992 776.452 69.336 773.892 72.024C771.332 74.648 770.052 78.392 770.052 83.256V96.888C770.052 101.752 771.332 105.528 773.892 108.216C776.452 110.84 779.78 112.152 783.876 112.152C787.972 112.152 791.3 110.84 793.86 108.216C796.42 105.528 797.7 101.752 797.7 96.888V83.256ZM827.365 57.144H857.701V68.952H850.021V111.192H857.701V123H827.365V111.192H835.141V68.952H827.365V57.144ZM899.167 57.144C904.607 57.144 909.535 58.296 913.951 60.6C918.431 62.904 921.983 66.264 924.607 70.68C927.231 75.096 928.543 80.312 928.543 86.328V93.816C928.543 99.832 927.231 105.048 924.607 109.464C921.983 113.88 918.431 117.24 913.951 119.544C909.535 121.848 904.607 123 899.167 123H874.207V57.144H899.167ZM889.087 111.192H899.167C903.263 111.192 906.591 109.88 909.151 107.256C911.711 104.568 912.991 100.792 912.991 95.928V84.216C912.991 79.352 911.711 75.608 909.151 72.984C906.591 70.296 903.263 68.952 899.167 68.952H889.087V111.192ZM360.544 237H339.616L335.68 225.288H314.752L310.912 237H291.52L313.504 171.144H338.56L360.544 237ZM325.024 191.4L319.36 211.368H331.072L325.504 191.4H325.024ZM431.582 216.072C431.582 220.488 430.494 224.36 428.318 227.688C426.206 230.952 423.198 233.48 419.295 235.272C415.39 237.064 410.846 237.96 405.662 237.96H401.534C396.35 237.96 391.806 237.064 387.902 235.272C383.998 233.48 380.958 230.952 378.782 227.688C376.67 224.36 375.614 220.488 375.614 216.072V171.144H395.87V215.784C395.87 217.896 396.606 219.624 398.078 220.968C399.614 222.312 401.47 222.984 403.646 222.984C405.822 222.984 407.646 222.312 409.118 220.968C410.654 219.624 411.422 217.896 411.422 215.784V171.144H431.582V216.072ZM501.905 186.984H485.201V237H465.233V186.984H448.529V171.144H501.905V186.984ZM575.339 237H555.179V211.368H539.627V237H519.371V171.144H539.531V195.432H555.083V171.144H575.339V237ZM628.548 170.376C633.796 170.376 638.596 171.688 642.948 174.312C647.364 176.872 650.852 180.36 653.412 184.776C656.036 189.128 657.348 193.928 657.348 199.176V209.16C657.348 214.408 656.036 219.24 653.412 223.656C650.852 228.008 647.364 231.496 642.948 234.12C638.596 236.68 633.796 237.96 628.548 237.96H623.172C617.924 237.96 613.092 236.68 608.676 234.12C604.324 231.496 600.836 228.008 598.212 223.656C595.652 219.24 594.372 214.408 594.372 209.16V199.176C594.372 193.928 595.652 189.128 598.212 184.776C600.836 180.36 604.324 176.872 608.676 174.312C613.092 171.688 617.924 170.376 623.172 170.376H628.548ZM625.668 185.16C622.98 185.16 620.708 186.088 618.852 187.944C616.996 189.8 616.068 192.072 616.068 194.76V213.288C616.068 215.976 616.996 218.248 618.852 220.104C620.708 221.96 622.98 222.888 625.668 222.888H626.148C628.836 222.888 631.108 221.96 632.964 220.104C634.82 218.248 635.748 215.976 635.748 213.288V194.76C635.748 192.072 634.82 189.8 632.964 187.944C631.108 186.088 628.836 185.16 626.148 185.16H625.668ZM713.294 171.144C716.43 171.144 719.374 171.848 722.126 173.256C724.942 174.6 727.214 176.52 728.942 179.016C730.67 181.448 731.534 184.264 731.534 187.464C731.534 189.768 730.99 192.04 729.902 194.28C728.878 196.52 727.47 198.44 725.678 200.04C723.886 201.64 721.902 202.632 719.726 203.016V203.496C723.246 204.584 725.87 206.632 727.598 209.64C729.39 212.584 730.286 216.168 730.286 220.392C730.286 223.4 730.574 225.992 731.15 228.168C731.726 230.28 733.07 231.624 735.182 232.2V236.136C732.238 237.352 728.398 237.96 723.662 237.96C719.118 237.96 715.726 237.032 713.486 235.176C711.246 233.256 710.126 230.056 710.126 225.576C710.126 221.352 709.582 217.96 708.494 215.4C707.47 212.776 705.166 211.464 701.582 211.464H696.014V237H676.334V171.144H713.294ZM696.014 196.776H706.19C707.534 196.776 708.654 196.328 709.55 195.432C710.51 194.472 710.99 193.32 710.99 191.976V191.016C710.99 189.672 710.51 188.552 709.55 187.656C708.654 186.696 707.534 186.216 706.19 186.216H696.014V196.776ZM786.22 185.256H778.444V222.792H786.22V237H750.316V222.792H758.092V185.256H750.316V171.144H786.22V185.256ZM855.08 186.984H838.376V237H818.408V186.984H801.704V171.144H855.08V186.984ZM908.162 211.848V237H888.098V211.848L866.21 171.144H888.866L898.754 192.744H899.234L909.314 171.144H929.954L908.162 211.848Z" fill="black"/>
<defs>
<linearGradient id="paint0_linear" x1="131.418" y1="14.63" x2="131.418" y2="295.265" gradientUnits="userSpaceOnUse">
<stop stop-color="#53346D"/>
<stop offset="1"/>
</linearGradient>
</defs>
</svg>
